<svg width="110" height="110" viewBox="0 0 110 110" fill="none" xmlns="http://www.w3.org/2000/svg">
<g style="mix-blend-mode:multiply">
<path d="M110 0H0V110H110V0Z" fill="white"/>
<path d="M37.1424 5.71436H33.8091V9.04769H37.1424V5.71436Z" fill="black"/>
<path d="M40.4763 5.71436H37.1429V9.04769H40.4763V5.71436Z" fill="black"/>
<path d="M43.8098 5.71436H40.4764V9.04769H43.8098V5.71436Z" fill="black"/>
<path d="M47.1428 5.71436H43.8094V9.04769H47.1428V5.71436Z" fill="black"/>
<path d="M50.4759 5.71436H47.1426V9.04769H50.4759V5.71436Z" fill="black"/>
<path d="M53.8094 5.71436H50.4761V9.04769H53.8094V5.71436Z" fill="black"/>
<path d="M57.1429 5.71436H53.8096V9.04769H57.1429V5.71436Z" fill="black"/>
<path d="M60.4763 5.71436H57.1429V9.04769H60.4763V5.71436Z" fill="black"/>
<path d="M67.1425 5.71436H63.8092V9.04769H67.1425V5.71436Z" fill="black"/>
<path d="M37.1424 9.04773H33.8091V12.3811H37.1424V9.04773Z" fill="black"/>
<path d="M40.4763 9.04773H37.1429V12.3811H40.4763V9.04773Z" fill="black"/>
<path d="M43.8098 9.04773H40.4764V12.3811H43.8098V9.04773Z" fill="black"/>
<path d="M50.4759 9.04773H47.1426V12.3811H50.4759V9.04773Z" fill="black"/>
<path d="M53.8094 9.04773H50.4761V12.3811H53.8094V9.04773Z" fill="black"/>
<path d="M57.1429 9.04773H53.8096V12.3811H57.1429V9.04773Z" fill="black"/>
<path d="M60.4763 9.04773H57.1429V12.3811H60.4763V9.04773Z" fill="black"/>
<path d="M67.1425 9.04773H63.8092V12.3811H67.1425V9.04773Z" fill="black"/>
<path d="M70.4759 9.04773H67.1426V12.3811H70.4759V9.04773Z" fill="black"/>
<path d="M73.8094 9.04773H70.4761V12.3811H73.8094V9.04773Z" fill="black"/>
<path d="M37.1424 12.3811H33.8091V15.7144H37.1424V12.3811Z" fill="black"/>
<path d="M40.4763 12.3811H37.1429V15.7144H40.4763V12.3811Z" fill="black"/>
<path d="M47.1428 12.3811H43.8094V15.7144H47.1428V12.3811Z" fill="black"/>
<path d="M53.8094 12.3811H50.4761V15.7144H53.8094V12.3811Z" fill="black"/>
<path d="M57.1429 12.3811H53.8096V15.7144H57.1429V12.3811Z" fill="black"/>
<path d="M70.4759 12.3811H67.1426V15.7144H70.4759V12.3811Z" fill="black"/>
<path d="M73.8094 12.3811H70.4761V15.7144H73.8094V12.3811Z" fill="black"/>
<path d="M43.8098 15.7144H40.4764V19.0477H43.8098V15.7144Z" fill="black"/>
<path d="M57.1429 15.7144H53.8096V19.0477H57.1429V15.7144Z" fill="black"/>
<path d="M60.4763 15.7144H57.1429V19.0477H60.4763V15.7144Z" fill="black"/>
<path d="M67.1425 15.7144H63.8092V19.0477H67.1425V15.7144Z" fill="black"/>
<path d="M70.4759 15.7144H67.1426V19.0477H70.4759V15.7144Z" fill="black"/>
<path d="M73.8094 15.7144H70.4761V19.0477H73.8094V15.7144Z" fill="black"/>
<path d="M77.1429 15.7144H73.8096V19.0477H77.1429V15.7144Z" fill="black"/>
<path d="M37.1424 19.0477H33.8091V22.3811H37.1424V19.0477Z" fill="black"/>
<path d="M43.8098 19.0477H40.4764V22.3811H43.8098V19.0477Z" fill="black"/>
<path d="M47.1428 19.0477H43.8094V22.3811H47.1428V19.0477Z" fill="black"/>
<path d="M53.8094 19.0477H50.4761V22.3811H53.8094V19.0477Z" fill="black"/>
<path d="M60.4763 19.0477H57.1429V22.3811H60.4763V19.0477Z" fill="black"/>
<path d="M70.4759 19.0477H67.1426V22.3811H70.4759V19.0477Z" fill="black"/>
<path d="M73.8094 19.0477H70.4761V22.3811H73.8094V19.0477Z" fill="black"/>
<path d="M40.4763 22.381H37.1429V25.7143H40.4763V22.381Z" fill="black"/>
<path d="M47.1428 22.381H43.8094V25.7143H47.1428V22.381Z" fill="black"/>
<path d="M50.4759 22.381H47.1426V25.7143H50.4759V22.381Z" fill="black"/>
<path d="M53.8094 22.381H50.4761V25.7143H53.8094V22.381Z" fill="black"/>
<path d="M57.1429 22.381H53.8096V25.7143H57.1429V22.381Z" fill="black"/>
<path d="M77.1429 22.381H73.8096V25.7143H77.1429V22.381Z" fill="black"/>
<path d="M37.1424 25.7144H33.8091V29.0477H37.1424V25.7144Z" fill="black"/>
<path d="M43.8098 25.7144H40.4764V29.0477H43.8098V25.7144Z" fill="black"/>
<path d="M50.4759 25.7144H47.1426V29.0477H50.4759V25.7144Z" fill="black"/>
<path d="M57.1429 25.7144H53.8096V29.0477H57.1429V25.7144Z" fill="black"/>
<path d="M63.8098 25.7144H60.4764V29.0477H63.8098V25.7144Z" fill="black"/>
<path d="M70.4759 25.7144H67.1426V29.0477H70.4759V25.7144Z" fill="black"/>
<path d="M77.1429 25.7144H73.8096V29.0477H77.1429V25.7144Z" fill="black"/>
<path d="M40.4763 29.0476H37.1429V32.3809H40.4763V29.0476Z" fill="black"/>
<path d="M43.8098 29.0476H40.4764V32.3809H43.8098V29.0476Z" fill="black"/>
<path d="M50.4759 29.0476H47.1426V32.3809H50.4759V29.0476Z" fill="black"/>
<path d="M57.1429 29.0476H53.8096V32.3809H57.1429V29.0476Z" fill="black"/>
<path d="M70.4759 29.0476H67.1426V32.3809H70.4759V29.0476Z" fill="black"/>
<path d="M73.8094 29.0476H70.4761V32.3809H73.8094V29.0476Z" fill="black"/>
<path d="M77.1429 29.0476H73.8096V32.3809H77.1429V29.0476Z" fill="black"/>
<path d="M10.4762 32.3811H7.14282V35.7144H10.4762V32.3811Z" fill="black"/>
<path d="M20.4765 32.3811H17.1432V35.7144H20.4765V32.3811Z" fill="black"/>
<path d="M23.8098 32.3811H20.4764V35.7144H23.8098V32.3811Z" fill="black"/>
<path d="M27.1428 32.3811H23.8094V35.7144H27.1428V32.3811Z" fill="black"/>
<path d="M30.4762 32.3811H27.1428V35.7144H30.4762V32.3811Z" fill="black"/>
<path d="M33.8095 32.3811H30.4762V35.7144H33.8095V32.3811Z" fill="black"/>
<path d="M57.1429 32.3811H53.8096V35.7144H57.1429V32.3811Z" fill="black"/>
<path d="M80.4763 32.3811H77.1429V35.7144H80.4763V32.3811Z" fill="black"/>
<path d="M90.4761 32.3811H87.1427V35.7144H90.4761V32.3811Z" fill="black"/>
<path d="M97.1428 32.3811H93.8094V35.7144H97.1428V32.3811Z" fill="black"/>
<path d="M100.476 32.3811H97.1428V35.7144H100.476V32.3811Z" fill="black"/>
<path d="M103.81 32.3811H100.476V35.7144H103.81V32.3811Z" fill="black"/>
<path d="M10.4762 35.7144H7.14282V39.0477H10.4762V35.7144Z" fill="black"/>
<path d="M17.1424 35.7144H13.8091V39.0477H17.1424V35.7144Z" fill="black"/>
<path d="M27.1428 35.7144H23.8094V39.0477H27.1428V35.7144Z" fill="black"/>
<path d="M43.8098 35.7144H40.4764V39.0477H43.8098V35.7144Z" fill="black"/>
<path d="M57.1429 35.7144H53.8096V39.0477H57.1429V35.7144Z" fill="black"/>
<path d="M70.4759 35.7144H67.1426V39.0477H70.4759V35.7144Z" fill="black"/>
<path d="M73.8094 35.7144H70.4761V39.0477H73.8094V35.7144Z" fill="black"/>
<path d="M87.1426 35.7144H83.8092V39.0477H87.1426V35.7144Z" fill="black"/>
<path d="M90.4761 35.7144H87.1427V39.0477H90.4761V35.7144Z" fill="black"/>
<path d="M97.1428 35.7144H93.8094V39.0477H97.1428V35.7144Z" fill="black"/>
<path d="M100.476 35.7144H97.1428V39.0477H100.476V35.7144Z" fill="black"/>
<path d="M17.1424 39.0477H13.8091V42.3811H17.1424V39.0477Z" fill="black"/>
<path d="M23.8098 39.0477H20.4764V42.3811H23.8098V39.0477Z" fill="black"/>
<path d="M27.1428 39.0477H23.8094V42.3811H27.1428V39.0477Z" fill="black"/>
<path d="M30.4762 39.0477H27.1428V42.3811H30.4762V39.0477Z" fill="black"/>
<path d="M50.4759 39.0477H47.1426V42.3811H50.4759V39.0477Z" fill="black"/>
<path d="M57.1429 39.0477H53.8096V42.3811H57.1429V39.0477Z" fill="black"/>
<path d="M70.4759 39.0477H67.1426V42.3811H70.4759V39.0477Z" fill="black"/>
<path d="M80.4763 39.0477H77.1429V42.3811H80.4763V39.0477Z" fill="black"/>
<path d="M87.1426 39.0477H83.8092V42.3811H87.1426V39.0477Z" fill="black"/>
<path d="M97.1428 39.0477H93.8094V42.3811H97.1428V39.0477Z" fill="black"/>
<path d="M17.1424 42.3811H13.8091V45.7144H17.1424V42.3811Z" fill="black"/>
<path d="M23.8098 42.3811H20.4764V45.7144H23.8098V42.3811Z" fill="black"/>
<path d="M27.1428 42.3811H23.8094V45.7144H27.1428V42.3811Z" fill="black"/>
<path d="M33.8095 42.3811H30.4762V45.7144H33.8095V42.3811Z" fill="black"/>
<path d="M40.4763 42.3811H37.1429V45.7144H40.4763V42.3811Z" fill="black"/>
<path d="M47.1428 42.3811H43.8094V45.7144H47.1428V42.3811Z" fill="black"/>
<path d="M57.1429 42.3811H53.8096V45.7144H57.1429V42.3811Z" fill="black"/>
<path d="M60.4763 42.3811H57.1429V45.7144H60.4763V42.3811Z" fill="black"/>
<path d="M67.1425 42.3811H63.8092V45.7144H67.1425V42.3811Z" fill="black"/>
<path d="M80.4763 42.3811H77.1429V45.7144H80.4763V42.3811Z" fill="black"/>
<path d="M83.8095 42.3811H80.4762V45.7144H83.8095V42.3811Z" fill="black"/>
<path d="M93.8099 42.3811H90.4766V45.7144H93.8099V42.3811Z" fill="black"/>
<path d="M103.81 42.3811H100.476V45.7144H103.81V42.3811Z" fill="black"/>
<path d="M10.4762 45.7144H7.14282V49.0477H10.4762V45.7144Z" fill="black"/>
<path d="M13.8097 45.7144H10.4763V49.0477H13.8097V45.7144Z" fill="black"/>
<path d="M17.1424 45.7144H13.8091V49.0477H17.1424V45.7144Z" fill="black"/>
<path d="M20.4765 45.7144H17.1432V49.0477H20.4765V45.7144Z" fill="black"/>
<path d="M27.1428 45.7144H23.8094V49.0477H27.1428V45.7144Z" fill="black"/>
<path d="M30.4762 45.7144H27.1428V49.0477H30.4762V45.7144Z" fill="black"/>
<path d="M33.8095 45.7144H30.4762V49.0477H33.8095V45.7144Z" fill="black"/>
<path d="M53.8094 45.7144H50.4761V49.0477H53.8094V45.7144Z" fill="black"/>
<path d="M57.1429 45.7144H53.8096V49.0477H57.1429V45.7144Z" fill="black"/>
<path d="M73.8094 45.7144H70.4761V49.0477H73.8094V45.7144Z" fill="black"/>
<path d="M83.8095 45.7144H80.4762V49.0477H83.8095V45.7144Z" fill="black"/>
<path d="M87.1426 45.7144H83.8092V49.0477H87.1426V45.7144Z" fill="black"/>
<path d="M103.81 45.7144H100.476V49.0477H103.81V45.7144Z" fill="black"/>
<path d="M17.1424 49.0476H13.8091V52.3809H17.1424V49.0476Z" fill="black"/>
<path d="M20.4765 49.0476H17.1432V52.3809H20.4765V49.0476Z" fill="black"/>
<path d="M40.4763 49.0476H37.1429V52.3809H40.4763V49.0476Z" fill="black"/>
<path d="M50.4759 49.0476H47.1426V52.3809H50.4759V49.0476Z" fill="black"/>
<path d="M67.1425 49.0476H63.8092V52.3809H67.1425V49.0476Z" fill="black"/>
<path d="M70.4759 49.0476H67.1426V52.3809H70.4759V49.0476Z" fill="black"/>
<path d="M80.4763 49.0476H77.1429V52.3809H80.4763V49.0476Z" fill="black"/>
<path d="M83.8095 49.0476H80.4762V52.3809H83.8095V49.0476Z" fill="black"/>
<path d="M90.4761 49.0476H87.1427V52.3809H90.4761V49.0476Z" fill="black"/>
<path d="M93.8099 49.0476H90.4766V52.3809H93.8099V49.0476Z" fill="black"/>
<path d="M97.1428 49.0476H93.8094V52.3809H97.1428V49.0476Z" fill="black"/>
<path d="M100.476 49.0476H97.1428V52.3809H100.476V49.0476Z" fill="black"/>
<path d="M103.81 49.0476H100.476V52.3809H103.81V49.0476Z" fill="black"/>
<path d="M10.4762 52.381H7.14282V55.7143H10.4762V52.381Z" fill="black"/>
<path d="M20.4765 52.381H17.1432V55.7143H20.4765V52.381Z" fill="black"/>
<path d="M30.4762 52.381H27.1428V55.7143H30.4762V52.381Z" fill="black"/>
<path d="M40.4763 52.381H37.1429V55.7143H40.4763V52.381Z" fill="black"/>
<path d="M47.1428 52.381H43.8094V55.7143H47.1428V52.381Z" fill="black"/>
<path d="M50.4759 52.381H47.1426V55.7143H50.4759V52.381Z" fill="black"/>
<path d="M57.1429 52.381H53.8096V55.7143H57.1429V52.381Z" fill="black"/>
<path d="M60.4763 52.381H57.1429V55.7143H60.4763V52.381Z" fill="black"/>
<path d="M67.1425 52.381H63.8092V55.7143H67.1425V52.381Z" fill="black"/>
<path d="M73.8094 52.381H70.4761V55.7143H73.8094V52.381Z" fill="black"/>
<path d="M80.4763 52.381H77.1429V55.7143H80.4763V52.381Z" fill="black"/>
<path d="M83.8095 52.381H80.4762V55.7143H83.8095V52.381Z" fill="black"/>
<path d="M87.1426 52.381H83.8092V55.7143H87.1426V52.381Z" fill="black"/>
<path d="M97.1428 52.381H93.8094V55.7143H97.1428V52.381Z" fill="black"/>
<path d="M103.81 52.381H100.476V55.7143H103.81V52.381Z" fill="black"/>
<path d="M23.8098 55.7144H20.4764V59.0477H23.8098V55.7144Z" fill="black"/>
<path d="M27.1428 55.7144H23.8094V59.0477H27.1428V55.7144Z" fill="black"/>
<path d="M47.1428 55.7144H43.8094V59.0477H47.1428V55.7144Z" fill="black"/>
<path d="M50.4759 55.7144H47.1426V59.0477H50.4759V55.7144Z" fill="black"/>
<path d="M53.8094 55.7144H50.4761V59.0477H53.8094V55.7144Z" fill="black"/>
<path d="M57.1429 55.7144H53.8096V59.0477H57.1429V55.7144Z" fill="black"/>
<path d="M63.8098 55.7144H60.4764V59.0477H63.8098V55.7144Z" fill="black"/>
<path d="M83.8095 55.7144H80.4762V59.0477H83.8095V55.7144Z" fill="black"/>
<path d="M87.1426 55.7144H83.8092V59.0477H87.1426V55.7144Z" fill="black"/>
<path d="M90.4761 55.7144H87.1427V59.0477H90.4761V55.7144Z" fill="black"/>
<path d="M97.1428 55.7144H93.8094V59.0477H97.1428V55.7144Z" fill="black"/>
<path d="M103.81 55.7144H100.476V59.0477H103.81V55.7144Z" fill="black"/>
<path d="M13.8097 59.0476H10.4763V62.3809H13.8097V59.0476Z" fill="black"/>
<path d="M17.1424 59.0476H13.8091V62.3809H17.1424V59.0476Z" fill="black"/>
<path d="M20.4765 59.0476H17.1432V62.3809H20.4765V59.0476Z" fill="black"/>
<path d="M27.1428 59.0476H23.8094V62.3809H27.1428V59.0476Z" fill="black"/>
<path d="M30.4762 59.0476H27.1428V62.3809H30.4762V59.0476Z" fill="black"/>
<path d="M33.8095 59.0476H30.4762V62.3809H33.8095V59.0476Z" fill="black"/>
<path d="M37.1424 59.0476H33.8091V62.3809H37.1424V59.0476Z" fill="black"/>
<path d="M43.8098 59.0476H40.4764V62.3809H43.8098V59.0476Z" fill="black"/>
<path d="M50.4759 59.0476H47.1426V62.3809H50.4759V59.0476Z" fill="black"/>
<path d="M60.4763 59.0476H57.1429V62.3809H60.4763V59.0476Z" fill="black"/>
<path d="M73.8094 59.0476H70.4761V62.3809H73.8094V59.0476Z" fill="black"/>
<path d="M93.8099 59.0476H90.4766V62.3809H93.8099V59.0476Z" fill="black"/>
<path d="M10.4762 62.3811H7.14282V65.7144H10.4762V62.3811Z" fill="black"/>
<path d="M20.4765 62.3811H17.1432V65.7144H20.4765V62.3811Z" fill="black"/>
<path d="M27.1428 62.3811H23.8094V65.7144H27.1428V62.3811Z" fill="black"/>
<path d="M50.4759 62.3811H47.1426V65.7144H50.4759V62.3811Z" fill="black"/>
<path d="M70.4759 62.3811H67.1426V65.7144H70.4759V62.3811Z" fill="black"/>
<path d="M73.8094 62.3811H70.4761V65.7144H73.8094V62.3811Z" fill="black"/>
<path d="M80.4763 62.3811H77.1429V65.7144H80.4763V62.3811Z" fill="black"/>
<path d="M90.4761 62.3811H87.1427V65.7144H90.4761V62.3811Z" fill="black"/>
<path d="M97.1428 62.3811H93.8094V65.7144H97.1428V62.3811Z" fill="black"/>
<path d="M100.476 62.3811H97.1428V65.7144H100.476V62.3811Z" fill="black"/>
<path d="M10.4762 65.7144H7.14282V69.0477H10.4762V65.7144Z" fill="black"/>
<path d="M13.8097 65.7144H10.4763V69.0477H13.8097V65.7144Z" fill="black"/>
<path d="M17.1424 65.7144H13.8091V69.0477H17.1424V65.7144Z" fill="black"/>
<path d="M30.4762 65.7144H27.1428V69.0477H30.4762V65.7144Z" fill="black"/>
<path d="M40.4763 65.7144H37.1429V69.0477H40.4763V65.7144Z" fill="black"/>
<path d="M43.8098 65.7144H40.4764V69.0477H43.8098V65.7144Z" fill="black"/>
<path d="M47.1428 65.7144H43.8094V69.0477H47.1428V65.7144Z" fill="black"/>
<path d="M53.8094 65.7144H50.4761V69.0477H53.8094V65.7144Z" fill="black"/>
<path d="M57.1429 65.7144H53.8096V69.0477H57.1429V65.7144Z" fill="black"/>
<path d="M63.8098 65.7144H60.4764V69.0477H63.8098V65.7144Z" fill="black"/>
<path d="M67.1425 65.7144H63.8092V69.0477H67.1425V65.7144Z" fill="black"/>
<path d="M73.8094 65.7144H70.4761V69.0477H73.8094V65.7144Z" fill="black"/>
<path d="M80.4763 65.7144H77.1429V69.0477H80.4763V65.7144Z" fill="black"/>
<path d="M83.8095 65.7144H80.4762V69.0477H83.8095V65.7144Z" fill="black"/>
<path d="M93.8099 65.7144H90.4766V69.0477H93.8099V65.7144Z" fill="black"/>
<path d="M103.81 65.7144H100.476V69.0477H103.81V65.7144Z" fill="black"/>
<path d="M10.4762 69.0477H7.14282V72.3811H10.4762V69.0477Z" fill="black"/>
<path d="M13.8097 69.0477H10.4763V72.3811H13.8097V69.0477Z" fill="black"/>
<path d="M33.8095 69.0477H30.4762V72.3811H33.8095V69.0477Z" fill="black"/>
<path d="M37.1424 69.0477H33.8091V72.3811H37.1424V69.0477Z" fill="black"/>
<path d="M43.8098 69.0477H40.4764V72.3811H43.8098V69.0477Z" fill="black"/>
<path d="M53.8094 69.0477H50.4761V72.3811H53.8094V69.0477Z" fill="black"/>
<path d="M60.4763 69.0477H57.1429V72.3811H60.4763V69.0477Z" fill="black"/>
<path d="M63.8098 69.0477H60.4764V72.3811H63.8098V69.0477Z" fill="black"/>
<path d="M73.8094 69.0477H70.4761V72.3811H73.8094V69.0477Z" fill="black"/>
<path d="M87.1426 69.0477H83.8092V72.3811H87.1426V69.0477Z" fill="black"/>
<path d="M90.4761 69.0477H87.1427V72.3811H90.4761V69.0477Z" fill="black"/>
<path d="M93.8099 69.0477H90.4766V72.3811H93.8099V69.0477Z" fill="black"/>
<path d="M97.1428 69.0477H93.8094V72.3811H97.1428V69.0477Z" fill="black"/>
<path d="M10.4762 72.3811H7.14282V75.7144H10.4762V72.3811Z" fill="black"/>
<path d="M13.8097 72.3811H10.4763V75.7144H13.8097V72.3811Z" fill="black"/>
<path d="M20.4765 72.3811H17.1432V75.7144H20.4765V72.3811Z" fill="black"/>
<path d="M23.8098 72.3811H20.4764V75.7144H23.8098V72.3811Z" fill="black"/>
<path d="M30.4762 72.3811H27.1428V75.7144H30.4762V72.3811Z" fill="black"/>
<path d="M33.8095 72.3811H30.4762V75.7144H33.8095V72.3811Z" fill="black"/>
<path d="M40.4763 72.3811H37.1429V75.7144H40.4763V72.3811Z" fill="black"/>
<path d="M47.1428 72.3811H43.8094V75.7144H47.1428V72.3811Z" fill="black"/>
<path d="M53.8094 72.3811H50.4761V75.7144H53.8094V72.3811Z" fill="black"/>
<path d="M70.4759 72.3811H67.1426V75.7144H70.4759V72.3811Z" fill="black"/>
<path d="M73.8094 72.3811H70.4761V75.7144H73.8094V72.3811Z" fill="black"/>
<path d="M77.1429 72.3811H73.8096V75.7144H77.1429V72.3811Z" fill="black"/>
<path d="M80.4763 72.3811H77.1429V75.7144H80.4763V72.3811Z" fill="black"/>
<path d="M83.8095 72.3811H80.4762V75.7144H83.8095V72.3811Z" fill="black"/>
<path d="M87.1426 72.3811H83.8092V75.7144H87.1426V72.3811Z" fill="black"/>
<path d="M90.4761 72.3811H87.1427V75.7144H90.4761V72.3811Z" fill="black"/>
<path d="M93.8099 72.3811H90.4766V75.7144H93.8099V72.3811Z" fill="black"/>
<path d="M97.1428 72.3811H93.8094V75.7144H97.1428V72.3811Z" fill="black"/>
<path d="M100.476 72.3811H97.1428V75.7144H100.476V72.3811Z" fill="black"/>
<path d="M37.1424 75.7144H33.8091V79.0477H37.1424V75.7144Z" fill="black"/>
<path d="M40.4763 75.7144H37.1429V79.0477H40.4763V75.7144Z" fill="black"/>
<path d="M43.8098 75.7144H40.4764V79.0477H43.8098V75.7144Z" fill="black"/>
<path d="M47.1428 75.7144H43.8094V79.0477H47.1428V75.7144Z" fill="black"/>
<path d="M50.4759 75.7144H47.1426V79.0477H50.4759V75.7144Z" fill="black"/>
<path d="M53.8094 75.7144H50.4761V79.0477H53.8094V75.7144Z" fill="black"/>
<path d="M63.8098 75.7144H60.4764V79.0477H63.8098V75.7144Z" fill="black"/>
<path d="M67.1425 75.7144H63.8092V79.0477H67.1425V75.7144Z" fill="black"/>
<path d="M70.4759 75.7144H67.1426V79.0477H70.4759V75.7144Z" fill="black"/>
<path d="M73.8094 75.7144H70.4761V79.0477H73.8094V75.7144Z" fill="black"/>
<path d="M77.1429 75.7144H73.8096V79.0477H77.1429V75.7144Z" fill="black"/>
<path d="M90.4761 75.7144H87.1427V79.0477H90.4761V75.7144Z" fill="black"/>
<path d="M93.8099 75.7144H90.4766V79.0477H93.8099V75.7144Z" fill="black"/>
<path d="M37.1424 79.0477H33.8091V82.3811H37.1424V79.0477Z" fill="black"/>
<path d="M40.4763 79.0477H37.1429V82.3811H40.4763V79.0477Z" fill="black"/>
<path d="M47.1428 79.0477H43.8094V82.3811H47.1428V79.0477Z" fill="black"/>
<path d="M53.8094 79.0477H50.4761V82.3811H53.8094V79.0477Z" fill="black"/>
<path d="M60.4763 79.0477H57.1429V82.3811H60.4763V79.0477Z" fill="black"/>
<path d="M63.8098 79.0477H60.4764V82.3811H63.8098V79.0477Z" fill="black"/>
<path d="M73.8094 79.0477H70.4761V82.3811H73.8094V79.0477Z" fill="black"/>
<path d="M77.1429 79.0477H73.8096V82.3811H77.1429V79.0477Z" fill="black"/>
<path d="M83.8095 79.0477H80.4762V82.3811H83.8095V79.0477Z" fill="black"/>
<path d="M90.4761 79.0477H87.1427V82.3811H90.4761V79.0477Z" fill="black"/>
<path d="M93.8099 79.0477H90.4766V82.3811H93.8099V79.0477Z" fill="black"/>
<path d="M37.1424 82.381H33.8091V85.7143H37.1424V82.381Z" fill="black"/>
<path d="M53.8094 82.381H50.4761V85.7143H53.8094V82.381Z" fill="black"/>
<path d="M63.8098 82.381H60.4764V85.7143H63.8098V82.381Z" fill="black"/>
<path d="M70.4759 82.381H67.1426V85.7143H70.4759V82.381Z" fill="black"/>
<path d="M73.8094 82.381H70.4761V85.7143H73.8094V82.381Z" fill="black"/>
<path d="M77.1429 82.381H73.8096V85.7143H77.1429V82.381Z" fill="black"/>
<path d="M90.4761 82.381H87.1427V85.7143H90.4761V82.381Z" fill="black"/>
<path d="M100.476 82.381H97.1428V85.7143H100.476V82.381Z" fill="black"/>
<path d="M37.1424 85.7144H33.8091V89.0477H37.1424V85.7144Z" fill="black"/>
<path d="M47.1428 85.7144H43.8094V89.0477H47.1428V85.7144Z" fill="black"/>
<path d="M50.4759 85.7144H47.1426V89.0477H50.4759V85.7144Z" fill="black"/>
<path d="M53.8094 85.7144H50.4761V89.0477H53.8094V85.7144Z" fill="black"/>
<path d="M60.4763 85.7144H57.1429V89.0477H60.4763V85.7144Z" fill="black"/>
<path d="M63.8098 85.7144H60.4764V89.0477H63.8098V85.7144Z" fill="black"/>
<path d="M67.1425 85.7144H63.8092V89.0477H67.1425V85.7144Z" fill="black"/>
<path d="M73.8094 85.7144H70.4761V89.0477H73.8094V85.7144Z" fill="black"/>
<path d="M77.1429 85.7144H73.8096V89.0477H77.1429V85.7144Z" fill="black"/>
<path d="M80.4763 85.7144H77.1429V89.0477H80.4763V85.7144Z" fill="black"/>
<path d="M83.8095 85.7144H80.4762V89.0477H83.8095V85.7144Z" fill="black"/>
<path d="M87.1426 85.7144H83.8092V89.0477H87.1426V85.7144Z" fill="black"/>
<path d="M90.4761 85.7144H87.1427V89.0477H90.4761V85.7144Z" fill="black"/>
<path d="M93.8099 85.7144H90.4766V89.0477H93.8099V85.7144Z" fill="black"/>
<path d="M100.476 85.7144H97.1428V89.0477H100.476V85.7144Z" fill="black"/>
<path d="M37.1424 89.0477H33.8091V92.3811H37.1424V89.0477Z" fill="black"/>
<path d="M40.4763 89.0477H37.1429V92.3811H40.4763V89.0477Z" fill="black"/>
<path d="M47.1428 89.0477H43.8094V92.3811H47.1428V89.0477Z" fill="black"/>
<path d="M57.1429 89.0477H53.8096V92.3811H57.1429V89.0477Z" fill="black"/>
<path d="M63.8098 89.0477H60.4764V92.3811H63.8098V89.0477Z" fill="black"/>
<path d="M70.4759 89.0477H67.1426V92.3811H70.4759V89.0477Z" fill="black"/>
<path d="M73.8094 89.0477H70.4761V92.3811H73.8094V89.0477Z" fill="black"/>
<path d="M80.4763 89.0477H77.1429V92.3811H80.4763V89.0477Z" fill="black"/>
<path d="M87.1426 89.0477H83.8092V92.3811H87.1426V89.0477Z" fill="black"/>
<path d="M100.476 89.0477H97.1428V92.3811H100.476V89.0477Z" fill="black"/>
<path d="M43.8098 92.3811H40.4764V95.7144H43.8098V92.3811Z" fill="black"/>
<path d="M50.4759 92.3811H47.1426V95.7144H50.4759V92.3811Z" fill="black"/>
<path d="M57.1429 92.3811H53.8096V95.7144H57.1429V92.3811Z" fill="black"/>
<path d="M63.8098 92.3811H60.4764V95.7144H63.8098V92.3811Z" fill="black"/>
<path d="M70.4759 92.3811H67.1426V95.7144H70.4759V92.3811Z" fill="black"/>
<path d="M77.1429 92.3811H73.8096V95.7144H77.1429V92.3811Z" fill="black"/>
<path d="M80.4763 92.3811H77.1429V95.7144H80.4763V92.3811Z" fill="black"/>
<path d="M87.1426 92.3811H83.8092V95.7144H87.1426V92.3811Z" fill="black"/>
<path d="M90.4761 92.3811H87.1427V95.7144H90.4761V92.3811Z" fill="black"/>
<path d="M97.1428 92.3811H93.8094V95.7144H97.1428V92.3811Z" fill="black"/>
<path d="M100.476 92.3811H97.1428V95.7144H100.476V92.3811Z" fill="black"/>
<path d="M103.81 92.3811H100.476V95.7144H103.81V92.3811Z" fill="black"/>
<path d="M40.4763 95.7144H37.1429V99.0477H40.4763V95.7144Z" fill="black"/>
<path d="M53.8094 95.7144H50.4761V99.0477H53.8094V95.7144Z" fill="black"/>
<path d="M60.4763 95.7144H57.1429V99.0477H60.4763V95.7144Z" fill="black"/>
<path d="M87.1426 95.7144H83.8092V99.0477H87.1426V95.7144Z" fill="black"/>
<path d="M93.8099 95.7144H90.4766V99.0477H93.8099V95.7144Z" fill="black"/>
<path d="M97.1428 95.7144H93.8094V99.0477H97.1428V95.7144Z" fill="black"/>
<path d="M103.81 95.7144H100.476V99.0477H103.81V95.7144Z" fill="black"/>
<path d="M37.1424 99.0477H33.8091V102.381H37.1424V99.0477Z" fill="black"/>
<path d="M40.4763 99.0477H37.1429V102.381H40.4763V99.0477Z" fill="black"/>
<path d="M43.8098 99.0477H40.4764V102.381H43.8098V99.0477Z" fill="black"/>
<path d="M47.1428 99.0477H43.8094V102.381H47.1428V99.0477Z" fill="black"/>
<path d="M50.4759 99.0477H47.1426V102.381H50.4759V99.0477Z" fill="black"/>
<path d="M53.8094 99.0477H50.4761V102.381H53.8094V99.0477Z" fill="black"/>
<path d="M63.8098 99.0477H60.4764V102.381H63.8098V99.0477Z" fill="black"/>
<path d="M67.1425 99.0477H63.8092V102.381H67.1425V99.0477Z" fill="black"/>
<path d="M70.4759 99.0477H67.1426V102.381H70.4759V99.0477Z" fill="black"/>
<path d="M73.8094 99.0477H70.4761V102.381H73.8094V99.0477Z" fill="black"/>
<path d="M77.1429 99.0477H73.8096V102.381H77.1429V99.0477Z" fill="black"/>
<path d="M90.4761 99.0477H87.1427V102.381H90.4761V99.0477Z" fill="black"/>
<path d="M93.8099 99.0477H90.4766V102.381H93.8099V99.0477Z" fill="black"/>
<path d="M26.9762 5.71436H10.6428H7.14282V9.21435V25.5477V29.0477H10.6428H26.9762H30.4762V25.5477V9.21435V5.71436H26.9762ZM26.9762 25.5477H10.6428V9.21435H26.9762V25.5477Z" fill="black"/>
<path d="M100.31 5.71436H83.9762H80.4762V9.21435V25.5477V29.0477H83.9762H100.31H103.81V25.5477V9.21435V5.71436H100.31ZM100.31 25.5477H83.9762V9.21435H100.31V25.5477Z" fill="black"/>
<path d="M26.9762 79.0477H10.6428H7.14282V82.5477V98.8811V102.381H10.6428H26.9762H30.4762V98.8811V82.5477V79.0477H26.9762ZM26.9762 98.8811H10.6428V82.5477H26.9762V98.8811Z" fill="black"/>
<path d="M23.8091 12.3811H13.8091V22.3811H23.8091V12.3811Z" fill="black"/>
<path d="M97.1427 12.3811H87.1427V22.3811H97.1427V12.3811Z" fill="black"/>
<path d="M23.8091 85.7144H13.8091V95.7144H23.8091V85.7144Z" fill="black"/>
<rect x="33.9999" y="32" width="44" height="44" fill="white"/>
<path fill-rule="evenodd" clip-rule="evenodd" d="M51.5819 56.2167C53.8483 53.4789 57.4836 49.608 59.9856 47.1059C62.4877 44.6038 65.3071 43.6701 65.7785 44.1415C66.2499 44.6129 65.3161 47.4323 62.8141 49.9343C60.312 52.4364 56.441 56.0717 53.7033 58.338C50.9655 60.6044 49.8686 60.7585 49.515 60.405C49.1615 60.0514 49.3156 58.9545 51.5819 56.2167Z" fill="black"/>
<path fill-rule="evenodd" clip-rule="evenodd" d="M48.371 45.9927C48.6389 45.7249 49.035 45.6314 49.3944 45.7512L60.4753 49.4448L63.8433 60.8961C63.9466 61.2472 63.8499 61.6266 63.5911 61.8854L62.2431 63.2334L55.9149 54.0052L46.6867 47.677L48.371 45.9927Z" fill="black"/>
<path fill-rule="evenodd" clip-rule="evenodd" d="M46.9935 55.8555C47.2418 55.6072 47.6023 55.5073 47.9431 55.5925L53.0507 56.8694L54.3276 61.977C54.4128 62.3177 54.3129 62.6782 54.0645 62.9266L53.4042 63.5869L50.5758 59.3443L46.3332 56.5158L46.9935 55.8555Z" fill="black"/>
</g>
</svg>
