<svg width="40" height="40" viewBox="0 0 40 40" fill="none" xmlns="http://www.w3.org/2000/svg">
<path d="M0 20C0 8.95431 8.95431 0 20 0V0C31.0457 0 40 8.95431 40 20V20C40 31.0457 31.0457 40 20 40V40C8.95431 40 0 31.0457 0 20V20Z" fill="#F8F8F8"/>
<path fill-rule="evenodd" clip-rule="evenodd" d="M12.0001 30H28V11L12.0001 11L12.0001 30ZM26 28V13H14L14 28H17V22H23.0001V28H26ZM21 24V28H19V24H21Z" fill="black"/>
<path d="M16 15H18V17H16V15Z" fill="black"/>
<path d="M19 15H21V17H19V15Z" fill="black"/>
<path d="M22 15H24V17H22V15Z" fill="black"/>
<path d="M16 18H18V20H16V18Z" fill="black"/>
<path d="M19 18H21V20H19V18Z" fill="black"/>
<path d="M22 18H24V20H22V18Z" fill="black"/>
</svg>
